<mxfile host="app.diagrams.net" modified="2021-01-11T09:16:57.630Z" agent="5.0 (Windows)" etag="zMC9T8o11JIFQ184bqBV" version="14.1.8" type="github">
  <diagram id="epQgM-5Ew00w2qwXV35x" name="Page-1">
    <mxGraphModel dx="1038" dy="547" grid="1" gridSize="10" guides="1" tooltips="1" connect="1" arrows="1" fold="1" page="1" pageScale="1" pageWidth="1169" pageHeight="827" math="0" shadow="0">
      <root>
        <mxCell id="0" />
        <mxCell id="1" parent="0" />
        <mxCell id="sYfRfdXsPD8_a0_L-cOq-1" value="Pool" style="swimlane;html=1;childLayout=stackLayout;resizeParent=1;resizeParentMax=0;horizontal=1;startSize=20;horizontalStack=0;" vertex="1" parent="1">
          <mxGeometry x="290" y="90" width="480" height="620" as="geometry" />
        </mxCell>
        <mxCell id="sYfRfdXsPD8_a0_L-cOq-2" value="PA" style="swimlane;html=1;startSize=20;horizontal=0;" vertex="1" parent="sYfRfdXsPD8_a0_L-cOq-1">
          <mxGeometry y="20" width="480" height="120" as="geometry" />
        </mxCell>
        <mxCell id="sYfRfdXsPD8_a0_L-cOq-3" value="MFA" style="swimlane;html=1;startSize=20;horizontal=0;" vertex="1" parent="sYfRfdXsPD8_a0_L-cOq-1">
          <mxGeometry y="140" width="480" height="120" as="geometry" />
        </mxCell>
        <mxCell id="sYfRfdXsPD8_a0_L-cOq-4" value="ABC" style="swimlane;html=1;startSize=20;horizontal=0;" vertex="1" parent="sYfRfdXsPD8_a0_L-cOq-1">
          <mxGeometry y="260" width="480" height="120" as="geometry" />
        </mxCell>
        <mxCell id="sYfRfdXsPD8_a0_L-cOq-5" value="AE" style="swimlane;html=1;startSize=20;horizontal=0;" vertex="1" parent="sYfRfdXsPD8_a0_L-cOq-1">
          <mxGeometry y="380" width="480" height="120" as="geometry" />
        </mxCell>
        <mxCell id="sYfRfdXsPD8_a0_L-cOq-6" value="CEO" style="swimlane;html=1;startSize=20;horizontal=0;" vertex="1" parent="sYfRfdXsPD8_a0_L-cOq-1">
          <mxGeometry y="500" width="480" height="120" as="geometry" />
        </mxCell>
      </root>
    </mxGraphModel>
  </diagram>
</mxfile>
